<svg width="900" height="680" viewBox="0 0 900 680" fill="none" xmlns="http://www.w3.org/2000/svg">
  <defs>
    <linearGradient id="bg" x1="0" y1="0" x2="900" y2="680" gradientUnits="userSpaceOnUse">
      <stop stop-color="#EEE7FF"/>
      <stop offset="0.45" stop-color="#DDF8FF"/>
      <stop offset="1" stop-color="#FFF0D8"/>
    </linearGradient>
    <linearGradient id="g1" x1="140" y1="40" x2="720" y2="620" gradientUnits="userSpaceOnUse">
      <stop stop-color="#7C3AED"/>
      <stop offset="0.42" stop-color="#06B6D4"/>
      <stop offset="1" stop-color="#F97316"/>
    </linearGradient>
    <linearGradient id="g2" x1="0" y1="0" x2="1" y2="1">
      <stop stop-color="#F472B6"/>
      <stop offset="1" stop-color="#6366F1"/>
    </linearGradient>
    <filter id="shadow" x="-20%" y="-20%" width="140%" height="140%">
      <feDropShadow dx="0" dy="30" stdDeviation="32" flood-color="#0F172A" flood-opacity="0.18"/>
    </filter>
    <filter id="blur"><feGaussianBlur stdDeviation="35"/></filter>
  </defs>
  <rect width="900" height="680" rx="64" fill="url(#bg)"/>
  <circle cx="160" cy="140" r="110" fill="#E879F9" opacity="0.45" filter="url(#blur)"/>
  <circle cx="740" cy="190" r="130" fill="#22D3EE" opacity="0.45" filter="url(#blur)"/>
  <circle cx="665" cy="560" r="130" fill="#FDBA74" opacity="0.38" filter="url(#blur)"/>

  <g filter="url(#shadow)">
    <rect x="88" y="92" width="360" height="440" rx="44" fill="white" fill-opacity="0.78"/>
    <rect x="122" y="132" width="160" height="18" rx="9" fill="#6366F1" opacity="0.25"/>
    <rect x="122" y="176" width="260" height="46" rx="23" fill="url(#g1)" opacity="0.95"/>
    <rect x="122" y="254" width="282" height="36" rx="18" fill="#E2E8F0"/>
    <rect x="122" y="314" width="214" height="36" rx="18" fill="#E2E8F0"/>
    <rect x="122" y="390" width="124" height="74" rx="24" fill="#EEF2FF"/>
    <rect x="268" y="390" width="124" height="74" rx="24" fill="#ECFEFF"/>
  </g>

  <g filter="url(#shadow)">
    <rect x="432" y="180" width="330" height="360" rx="44" fill="#0F172A"/>
    <rect x="472" y="224" width="105" height="105" rx="30" fill="url(#g2)"/>
    <path d="M500 278C525 246 560 246 582 278" stroke="white" stroke-width="12" stroke-linecap="round"/>
    <rect x="600" y="230" width="98" height="18" rx="9" fill="white" opacity="0.42"/>
    <rect x="600" y="264" width="122" height="18" rx="9" fill="white" opacity="0.72"/>
    <rect x="472" y="366" width="242" height="32" rx="16" fill="white" opacity="0.14"/>
    <rect x="472" y="422" width="186" height="32" rx="16" fill="white" opacity="0.14"/>
    <rect x="472" y="476" width="112" height="32" rx="16" fill="url(#g1)"/>
  </g>

  <g filter="url(#shadow)">
    <rect x="185" y="492" width="450" height="112" rx="36" fill="white" fill-opacity="0.85"/>
    <circle cx="244" cy="548" r="30" fill="#6366F1"/>
    <circle cx="324" cy="548" r="30" fill="#06B6D4"/>
    <circle cx="404" cy="548" r="30" fill="#F97316"/>
    <rect x="470" y="526" width="104" height="18" rx="9" fill="#CBD5E1"/>
    <rect x="470" y="562" width="62" height="18" rx="9" fill="#94A3B8"/>
  </g>

  <text x="102" y="620" font-family="Inter, Arial, sans-serif" font-size="28" font-weight="900" fill="#0F172A" opacity="0.75">PRODUCT WORKSPACE</text>
</svg>
